<svg xmlns="http://www.w3.org/2000/svg" width="1920" height="250" viewBox="0 0 1920 250" fill="none">
<mask id="mask0_6072_404" style="mask-type:alpha" maskUnits="userSpaceOnUse" x="0" y="0" width="1920" height="250">
<rect width="1920" height="250" fill="#EEEEEE"/>
</mask>
<g mask="url(#mask0_6072_404)">
<rect width="972" height="250" transform="matrix(-1 0 0 1 1920 0)" fill="url(#paint0_linear_6072_404)"/>
<rect width="948" height="250" fill="url(#paint1_linear_6072_404)"/>
<path d="M124 171.656L-49 63L-37.5755 406H19.5472L124 171.656Z" fill="#142441" fill-opacity="0.1"/>
<path d="M85 180L-21 87.5L-14 379.5H21L85 180Z" fill="#FEE100"/>
<path d="M1920 25.5239C1896.9 11.5175 1843.7 -3.68939 1815.66 47.5339C1787.61 98.7572 1736.43 102.759 1714.35 98.357C1673.77 91.2204 1597.53 100.158 1617.18 193" stroke="url(#paint2_linear_6072_404)" stroke-width="2"/>
</g>
<defs>
<linearGradient id="paint0_linear_6072_404" x1="0" y1="0" x2="887.251" y2="426.361" gradientUnits="userSpaceOnUse">
<stop stop-color="white"/>
<stop offset="0.776042" stop-color="white" stop-opacity="0.46"/>
<stop offset="0.895833" stop-color="#CAD9E8" stop-opacity="0"/>
<stop offset="1" stop-color="white" stop-opacity="0"/>
</linearGradient>
<linearGradient id="paint1_linear_6072_404" x1="0" y1="0" x2="873.334" y2="409.312" gradientUnits="userSpaceOnUse">
<stop stop-color="white"/>
<stop offset="0.776042" stop-color="white" stop-opacity="0.46"/>
<stop offset="0.895833" stop-color="#CAD9E8" stop-opacity="0"/>
<stop offset="1" stop-color="white" stop-opacity="0"/>
</linearGradient>
<linearGradient id="paint2_linear_6072_404" x1="1878" y1="7.53453" x2="1732.76" y2="250.596" gradientUnits="userSpaceOnUse">
<stop stop-color="#142441"/>
<stop offset="1" stop-color="white" stop-opacity="0"/>
</linearGradient>
</defs>
</svg>